<svg xmlns="http://www.w3.org/2000/svg" width="76" height="34" viewBox="0 0 76 34">
    <g fill="none" fill-rule="evenodd">
        <g fill="#003654" fill-rule="nonzero">
            <g>
                <g>
                    <path d="M71.575 12.15h-.956V7.603C70.62 3.45 67.195 0 62.894 0h-2.788c-4.221 0-7.725 3.37-7.725 7.603v4.547h-.956c-1.912 0-3.425 1.489-3.425 3.37v14.11c0 1.88 1.513 3.37 3.425 3.37h20.15C73.487 33 75 31.51 75 29.63V15.52c0-1.803-1.513-3.37-3.425-3.37zM63.77 27.043c.08.392-.16.705-.558.705h-3.424c-.399 0-.638-.392-.558-.705l1.115-4.39c-.956-.392-1.593-1.332-1.593-2.43 0-1.489 1.195-2.665 2.708-2.665 1.513 0 2.708 1.176 2.708 2.665 0 1.098-.637 2.038-1.593 2.43l1.195 4.39zM66 12.15h-9V7.603c0-1.646 1.354-3.057 3.106-3.057h2.788C64.566 4.546 66 5.88 66 7.603v4.547zM15.855 15.75c-.328-.566-1.067-.728-1.642-.404l-2.052 1.132v-2.346c0-.647-.493-1.132-1.15-1.132-.657 0-1.15.485-1.15 1.132v2.346L7.81 15.346c-.574-.324-1.313-.162-1.642.404-.328.566-.164 1.294.41 1.618L8.63 18.5l-2.052 1.132c-.575.324-.739 1.052-.41 1.618.246.404.574.566.985.566.164 0 .41-.08.574-.162l2.053-1.132v2.346c0 .647.492 1.132 1.15 1.132.656 0 1.149-.485 1.149-1.132v-2.346l2.052 1.132c.164.081.41.162.575.162.41 0 .82-.242.985-.566.328-.566.164-1.294-.41-1.618L13.227 18.5l2.052-1.132c.657-.405.904-1.133.575-1.618zM29.855 15.75c-.328-.566-1.067-.728-1.642-.404l-2.052 1.132v-2.346c0-.647-.493-1.132-1.15-1.132-.657 0-1.15.485-1.15 1.132v2.346l-2.052-1.132c-.574-.324-1.313-.162-1.642.404-.328.566-.164 1.294.41 1.618L22.63 18.5l-2.052 1.132c-.575.324-.739 1.052-.41 1.618.246.404.574.566.985.566.164 0 .41-.08.574-.162l2.053-1.132v2.346c0 .647.492 1.132 1.15 1.132.656 0 1.149-.485 1.149-1.132v-2.346l2.052 1.132c.164.081.41.162.575.162.41 0 .82-.242.985-.566.328-.566.164-1.294-.41-1.618L27.227 18.5l2.052-1.132c.657-.405.904-1.133.575-1.618zM43.855 15.75c-.328-.566-1.067-.728-1.642-.404l-2.052 1.132v-2.346c0-.647-.493-1.132-1.15-1.132-.657 0-1.15.485-1.15 1.132v2.346l-2.052-1.132c-.574-.324-1.313-.162-1.642.404-.328.566-.164 1.294.41 1.618L36.63 18.5l-2.052 1.132c-.575.324-.739 1.052-.41 1.618.246.404.574.566.985.566.164 0 .41-.08.574-.162l2.053-1.132v2.346c0 .647.492 1.132 1.15 1.132.656 0 1.149-.485 1.149-1.132v-2.346l2.052 1.132c.164.081.41.162.575.162.41 0 .82-.242.985-.566.328-.566.164-1.294-.41-1.618L41.227 18.5l2.052-1.132c.657-.405.904-1.133.575-1.618z" transform="translate(-1264 -104) translate(1264 104) translate(.403 .742)"/>
                    <path d="M49 9.12C49 8.48 48.527 8 47.897 8H6.223C2.757 8 0 10.88 0 14.32v9.36C0 27.2 2.836 30 6.223 30h37.341c.63 0 1.103-.48 1.103-1.12 0-.64-.472-1.12-1.103-1.12H6.224c-2.206 0-4.018-1.84-4.018-4.08v-9.36c0-2.24 1.812-4.08 4.017-4.08h41.674c.63.08 1.103-.48 1.103-1.12z" transform="translate(-1264 -104) translate(1264 104) translate(.403 .742)"/>
                </g>
            </g>
        </g>
    </g>
</svg>
