<svg xmlns="http://www.w3.org/2000/svg" width="47" height="42" viewBox="0 0 47 42">
    <g fill="none" fill-rule="evenodd">
        <g fill="#003654" fill-rule="nonzero">
            <g>
                <path stroke="#003654" d="M45 34.28c0 3.142-2.576 5.72-5.72 5.72H5.72C2.577 40 0 37.422 0 34.28V5.715C0 2.573 2.576 0 5.72 0h33.56C42.42 0 45 2.573 45 5.715V34.28zm-1.634-24.095H1.634V34.28c0 2.245 1.84 4.083 4.087 4.083h33.558c2.242 0 4.087-1.843 4.087-4.083V10.185zM5.75 3.455c-.903 0-1.634.736-1.634 1.638 0 .901.731 1.632 1.634 1.632.903 0 1.634-.73 1.634-1.632 0-.902-.731-1.638-1.634-1.638h0z" transform="translate(-1031 -104) translate(1032 105)"/>
                <path d="M20.771 28.944c1.461-.001 2.885-.465 4.07-1.326l5.08 5.103 1.657-1.67-5.068-5.102c2.01-3.009 1.446-7.058-1.307-9.395-2.753-2.337-6.812-2.212-9.418.29-2.015 2.032-2.618 5.085-1.527 7.738 1.091 2.652 3.661 4.383 6.513 4.386v-.024zM17.443 18.49c1.586-1.599 4.072-1.847 5.94-.593 1.866 1.254 2.593 3.661 1.735 5.749-.857 2.088-3.06 3.275-5.261 2.836-2.201-.44-3.788-2.383-3.79-4.642 0-1.256.494-2.461 1.376-3.35z" transform="translate(-1031 -104) translate(1032 105)"/>
            </g>
        </g>
    </g>
</svg>
