<svg xmlns="http://www.w3.org/2000/svg" width="47" height="42" viewBox="0 0 47 42">
    <g fill="none" fill-rule="evenodd">
        <g fill="#003654" fill-rule="nonzero">
            <g>
                <g>
                    <g>
                        <g>
                            <path stroke="#003654" d="M44.955 34.28c0 3.142-2.573 5.72-5.715 5.72H5.715C2.573 40 0 37.422 0 34.28V5.715C0 2.573 2.573 0 5.715 0H39.24c3.137 0 5.715 2.573 5.715 5.715V34.28zm-1.632-24.095H1.633V34.28c0 2.245 1.837 4.083 4.082 4.083H39.24c2.24 0 4.083-1.843 4.083-4.083V10.185zM5.744 3.455c-.901 0-1.632.736-1.632 1.638 0 .901.73 1.632 1.632 1.632.902 0 1.633-.73 1.633-1.632 0-.902-.73-1.638-1.633-1.638h0z" transform="translate(-1185 -103) translate(1186 104)"/>
                            <g>
                                <path d="M4.64 18.048c-1.877-.001-3.568-1.137-4.287-2.878-.718-1.74-.321-3.744 1.005-5.077l1.549-1.554c1.836-1.76 4.727-1.76 6.564 0 1.81 1.82 1.81 4.768 0 6.588l-1.548 1.554c-.87.874-2.051 1.366-3.283 1.367zM6.19 10.28c-.412-.002-.807.16-1.1.451l-1.548 1.554c-.6.606-.6 1.585 0 2.19.604.603 1.58.603 2.183 0l1.548-1.553c.434-.444.562-1.105.326-1.68-.235-.574-.79-.953-1.41-.962z" transform="translate(-1185 -103) translate(1186 104) translate(13.785 14.692)"/>
                                <path d="M11.86 10.829c-1.877-.002-3.57-1.137-4.287-2.878-.718-1.74-.322-3.744 1.005-5.077l1.548-1.554c1.836-1.76 4.727-1.76 6.564 0 1.81 1.82 1.81 4.768 0 6.588l-1.548 1.554c-.87.874-2.05 1.366-3.282 1.367zm1.548-7.769c-.412-.002-.807.16-1.1.45l-1.547 1.554c-.6.607-.6 1.585 0 2.191.603.603 1.579.603 2.182 0l1.549-1.553c.433-.444.561-1.105.326-1.68-.236-.575-.79-.953-1.41-.962z" transform="translate(-1185 -103) translate(1186 104) translate(13.785 14.692)"/>
                                <path d="M8.6 12.634c-.558.003-1.062-.331-1.276-.845-.214-.515-.095-1.107.301-1.499l2.744-2.741c.545-.466 1.356-.435 1.863.072.507.506.538 1.317.072 1.86L9.56 12.223c-.254.258-.599.406-.96.41z" transform="translate(-1185 -103) translate(1186 104) translate(13.785 14.692)"/>
                            </g>
                        </g>
                    </g>
                </g>
            </g>
        </g>
    </g>
</svg>
