<svg xmlns="http://www.w3.org/2000/svg" width="29" height="38" viewBox="0 0 29 38">
    <g fill="none" fill-rule="evenodd">
        <g fill="#003654" fill-rule="nonzero">
            <g>
                <g>
                    <path d="M12.526 16.5c2.849 0 5.158-2.35 5.158-5.25S15.374 6 12.526 6c-2.848 0-5.158 2.35-5.158 5.25s2.31 5.25 5.158 5.25zm0-1.5c2.035 0 3.685-1.679 3.685-3.75 0-2.071-1.65-3.75-3.685-3.75-2.034 0-3.684 1.679-3.684 3.75 0 2.071 1.65 3.75 3.684 3.75zm8.842 19.5c3.663 0 6.632-3.022 6.632-6.75S25.03 21 21.368 21c-3.662 0-6.631 3.022-6.631 6.75s2.969 6.75 6.631 6.75zm0-12c2.849 0 5.158 2.35 5.158 5.25S24.217 33 21.368 33c-2.848 0-5.157-2.35-5.157-5.25s2.309-5.25 5.157-5.25zm0 4.06c-.407 0-.736.337-.736.75v3.44c0 .414.33.75.736.75.407 0 .737-.336.737-.75v-3.44c0-.413-.33-.75-.737-.75zm0-1.06c.407 0 .737-.336.737-.75s-.33-.75-.737-.75-.736.336-.736.75.33.75.736.75z" transform="translate(-1382 -103) translate(1383 104)"/>
                    <path stroke="#003654" d="M15.075 32.949l-.105.15c-.486.7-.938 1.338-1.343 1.9-.244.338-.419.577-.513.703-.295.397-.88.397-1.175 0-.095-.126-.27-.365-.513-.703-.406-.562-.857-1.2-1.343-1.9-1.39-2-2.779-4.104-4.076-6.216-.835-1.36-1.606-2.68-2.298-3.945C1.337 18.6 0 15.134 0 12.75 0 5.708 5.608 0 12.526 0s12.527 5.708 12.527 12.75c0 1.75-.721 4.085-2.044 6.92-.503-.106-1.024-.164-1.557-.17 1.375-2.862 2.127-5.175 2.127-6.75 0-6.213-4.948-11.25-11.053-11.25-6.104 0-11.052 5.037-11.052 11.25 0 2.046 1.269 5.337 3.523 9.458.679 1.243 1.437 2.54 2.26 3.88 1.28 2.085 2.655 4.167 4.029 6.145.48.693 1.24 1.741 1.24 1.741s.76-1.048 1.24-1.74l.435-.629c.248.478.541.928.874 1.344z" transform="translate(-1382 -103) translate(1383 104)"/>
                </g>
            </g>
        </g>
    </g>
</svg>
