<svg xmlns="http://www.w3.org/2000/svg" width="18" height="18" viewBox="0 0 18 18">
    <g fill="none" fill-rule="evenodd">
        <g fill="#000" fill-rule="nonzero">
            <g>
                <path d="M16.071 1.286h-1.928V.643c0-.355-.288-.643-.643-.643-.355 0-.643.288-.643.643v.643H5.143V.643C5.143.288 4.855 0 4.5 0c-.355 0-.643.288-.643.643v.643H1.93C.863 1.286 0 2.149 0 3.214v12.857C0 17.137.863 18 1.929 18H16.07C17.137 18 18 17.137 18 16.071V3.214c0-1.065-.863-1.928-1.929-1.928zm.643 14.785c0 .355-.288.643-.643.643H1.93c-.355 0-.643-.288-.643-.643V6.43h15.428v9.642zm0-10.928H1.286V3.214c0-.355.288-.643.643-.643h1.928v.643c0 .355.288.643.643.643.355 0 .643-.288.643-.643v-.643h7.714v.643c0 .355.288.643.643.643.355 0 .643-.288.643-.643v-.643h1.928c.355 0 .643.288.643.643v1.929z" transform="translate(-433 -166) translate(433 166)"/>
            </g>
        </g>
    </g>
</svg>
