<svg xmlns="http://www.w3.org/2000/svg" width="14" height="18" viewBox="0 0 14 18">
    <g fill="none" fill-rule="evenodd">
        <g fill="#000" fill-rule="nonzero">
            <g>
                <path d="M6.536 17.955l-.176-.138C6.1 17.613 0 12.762 0 6.546 0 2.936 2.996 0 6.678 0c3.681 0 6.677 2.936 6.677 6.546 0 6.181-6.42 11.361-6.519 11.409-.098.047-.208.072-.3 0zM6.678.995c-3.122 0-5.662 2.49-5.662 5.55 0 4.956 4.422 9.15 5.66 10.227 1.238-1.083 5.663-5.298 5.663-10.226 0-3.06-2.54-5.55-5.661-5.55zm0 8.336c-1.963 0-3.56-1.565-3.56-3.49 0-1.923 1.597-3.489 3.56-3.489 1.962 0 3.56 1.566 3.56 3.49 0 1.924-1.598 3.49-3.56 3.49zm0-5.983c-1.403 0-2.544 1.119-2.544 2.494 0 1.375 1.14 2.493 2.544 2.493 1.402 0 2.543-1.118 2.543-2.493 0-1.375-1.14-2.494-2.543-2.494z" transform="translate(-435 -132) translate(435 132)"/>
            </g>
        </g>
    </g>
</svg>
