<svg xmlns="http://www.w3.org/2000/svg" width="43" height="55" viewBox="0 0 43 55">
    <g fill="none" fill-rule="evenodd">
        <g fill="#003654" fill-rule="nonzero">
            <g>
                <g transform="translate(-858 -104) translate(858 104)">
                    <path d="M43 37.842c-.032-1.802-1.476-3.256-3.267-3.288h-6.117V0H14.373v4.185H0l5.227 8.848L0 21.88h23.579v-3.826h7.661V30.49h-7.127c-1.576.004-3.089.626-4.217 1.734H6.236V55H20.49v-2.212c1.057.814 2.352 1.256 3.683 1.255h13.363c1.485 0 2.85-1.554 2.85-3.288.002-.565-.14-1.12-.415-1.614.789-.668 1.245-1.652 1.247-2.69-.006-.59-.17-1.169-.475-1.674 1.367-.977 1.778-2.837.95-4.304.823-.621 1.307-1.596 1.307-2.63zM16.749 2.392H31.24v13.271H16.75V2.391zm4.454 17.097H4.217l3.86-6.456-3.86-6.457h10.156v11.478h6.83v1.435zm-3.088 33.12H8.67V34.614h9.444V52.61zm19.42-.897H24.174c-2.034 0-3.683-1.66-3.683-3.707V36.647c-.016-.994.365-1.952 1.058-2.66.692-.708 1.638-1.107 2.625-1.107H31.3v1.674h-4.158c-.656 0-1.188.536-1.188 1.196 0 .66.532 1.196 1.188 1.196h12.532c.508 0 .92.415.92.926 0 .512-.412.927-.92.927h-1.188c-.656-.033-1.214.475-1.247 1.136-.033.66.472 1.222 1.128 1.255h.416c.509 0 .92.415.92.927s-.411.926-.92.926h-1.188c-.656-.033-1.214.476-1.247 1.136-.033.66.472 1.223 1.129 1.256h.415c.492 0 .891.401.891.897-.01.357-.185.69-.475.896h-1.544c-.656-.033-1.215.476-1.247 1.136-.033.66.472 1.223 1.128 1.256h.416c.492 0 .89.401.89.896.116.447-.048.92-.415 1.196z"/>
                    <ellipse cx="13.898" cy="48.185" rx="1.604" ry="1.614"/>
                </g>
            </g>
        </g>
    </g>
</svg>
