<svg xmlns="http://www.w3.org/2000/svg" width="60" height="60" viewBox="0 0 60 60">
    <g fill="none" fill-rule="evenodd">
        <g fill="#003654" fill-rule="nonzero">
            <g>
                <g>
                    <path d="M18 4.003c-7.732 0-14 6.268-14 14C4 25.732 10.268 32 18 32s14-6.267 14-13.999c-.008-7.728-6.271-13.99-14-14zm0 25.999c-6.627 0-12-5.373-12-12s5.373-12 12-12 12 5.373 12 12c-.007 6.624-5.375 11.992-12 12z" transform="translate(-582 -99) translate(582 99)"/>
                    <path d="M59 21.002h-4v-3c0-.552-.448-1-1-1h-4.039c-.405-4.524-4.193-7.993-8.736-8h-7.66C30.188 3.145 23.809-.324 17.055.025 10.303.374 4.316 4.482 1.56 10.657-1.195 16.833-.252 24.032 4 29.291V60h2V31.38c2.526 2.274 5.648 3.783 9 4.35V42H9v2h3v4H9v2h3v4H9v2h3v4h2V44h8v16h2V43c0-.551-.448-1-1-1h-2v-6.27c3.038-.51 5.892-1.794 8.29-3.729H34v-2h-2.622c4.669-5.172 5.917-12.582 3.2-18.999H40v7c0 .552.448 1 1 1h7V60h2V19.002h3V60h2V23.002h3V60h2V22.002c0-.552-.448-1-1-1zM19 42.001h-2v-6.05c.333.018.662.05 1 .05.338 0 .667-.032 1-.05V42zm-1-8c-8.836 0-16-7.163-16-15.999s7.164-16 16-16c8.837 0 16 7.164 16 16-.01 8.832-7.168 15.989-16 16zm24-16.999V11.05c3.124.365 5.588 2.828 5.952 5.952H42z" transform="translate(-582 -99) translate(582 99)"/>
                    <path d="M11 18.002H13V24.002H11zM15 15.002H17V24.002000000000002H15zM19 12.002H21V24.001H19zM23 16.002H25V24.002H23zM40 24.002H45V26.002H40zM40 30.002H45V32.001999999999995H40zM40 36.001H45V38.001H40zM40 42.001H45V44.001H40zM40 48.001H45V50.001H40zM40 54H45V56H40zM29 36.001H34V38.001H29zM29 42.001H34V44.001H29zM29 48.001H34V50.001H29zM29 54H34V56H29zM9 36.001H13V38.001H9z" transform="translate(-582 -99) translate(582 99)"/>
                </g>
            </g>
        </g>
    </g>
</svg>
