<svg xmlns="http://www.w3.org/2000/svg" width="40" height="40" viewBox="0 0 40 40">
    <g fill="none" fill-rule="evenodd">
        <g fill="#003654">
            <g>
                <path fill-rule="nonzero" d="M17.5 15.75c-1.38 0-2.5 1.12-2.5 2.5s1.12 2.5 2.5 2.5 2.5-1.12 2.5-2.5-1.12-2.5-2.5-2.5z" transform="translate(-1444 -100) translate(1444 100)"/>
                <path d="M32.5 32.5h3.75c2.071 0 3.75-1.679 3.75-3.75v-25C40 1.679 38.321 0 36.25 0h-25C9.179 0 7.5 1.679 7.5 3.75V7.5H3.75C1.679 7.5 0 9.179 0 11.25v25C0 38.321 1.679 40 3.75 40h25c2.071 0 3.75-1.679 3.75-3.75V32.5zm-21.25-30c-.69 0-1.25.56-1.25 1.25V7.5h18.75c2.071 0 3.75 1.679 3.75 3.75V30h3.75c.69 0 1.25-.56 1.25-1.25v-25c0-.69-.56-1.25-1.25-1.25h-25zM30 23.768l-5.58 5.58c-2.441 2.441-6.399 2.441-8.84 0l-4.178-4.178c-1.465-1.465-3.84-1.465-5.304 0L2.5 28.767v7.482c0 .69.56 1.25 1.25 1.25h25c.69 0 1.25-.56 1.25-1.25V23.768zm-7.348 3.813L30 20.232V11.25c0-.69-.56-1.25-1.25-1.25h-25c-.69 0-1.25.56-1.25 1.25v13.982l1.83-1.83c2.441-2.441 6.399-2.441 8.84 0l4.178 4.179c1.465 1.464 3.84 1.464 5.304 0z" transform="translate(-1444 -100) translate(1444 100)"/>
            </g>
        </g>
    </g>
</svg>
