<svg xmlns="http://www.w3.org/2000/svg" width="18" height="18" viewBox="0 0 18 18">
    <g fill="none" fill-rule="evenodd">
        <g fill="#000" fill-rule="nonzero">
            <g>
                <path d="M9.783 7.227H7.82v1.166h.396v4.18H7.82v1.166h2.36v-1.165h-.397V7.227zM18 9c0-4.97-4.03-9-9-9S0 4.03 0 9s4.03 9 9 9 9-4.03 9-9zM9 1.019c4.409 0 7.981 3.572 7.981 7.981S13.41 16.981 9 16.981 1.019 13.41 1.019 9 4.59 1.019 9 1.019zM8.09 5.17c0 .502.408.908.91.908.501 0 .909-.406.909-.908 0-.503-.408-.91-.909-.91-.502 0-.91.407-.91.91z" transform="translate(-433 -99) translate(433 99)"/>
            </g>
        </g>
    </g>
</svg>
