<svg xmlns="http://www.w3.org/2000/svg" width="47" height="42" viewBox="0 0 47 42">
    <g fill="none" fill-rule="evenodd">
        <g fill="#003654" fill-rule="nonzero" stroke="#003654">
            <path d="M1165 139.28c0 3.142-2.576 5.72-5.72 5.72h-33.56c-3.144 0-5.72-2.578-5.72-5.72v-28.565c0-3.142 2.576-5.715 5.72-5.715h33.56c3.14 0 5.72 2.573 5.72 5.715v28.565zm-19.448-10.822c.451 0 .819.363.819.814 0 .45-.368.818-.82.818h-3.031c-.462 0-.84-.348-.84-.818v-4.446c0-.45.369-.814.82-.814.451 0 .82.363.82.814v3.632h2.232zm-3.052-7.48c4.582 0 8.301 3.72 8.301 8.294 0 4.577-3.723 8.298-8.301 8.298s-8.301-3.72-8.301-8.298c0-4.578 3.714-8.294 8.301-8.294zm0 1.637c-3.68 0-6.668 2.98-6.668 6.657 0 3.685 2.979 6.66 6.668 6.66 3.685 0 6.668-2.975 6.668-6.66 0-3.681-2.983-6.657-6.668-6.657zm20.866-7.43h-41.732v24.095c0 2.245 1.84 4.083 4.087 4.083h33.558c2.242 0 4.087-1.843 4.087-4.083v-24.095zm-37.616-6.73c-.903 0-1.634.736-1.634 1.638 0 .901.731 1.632 1.634 1.632.903 0 1.634-.73 1.634-1.632 0-.902-.731-1.638-1.634-1.638h0z" transform="translate(-1119 -104)"/>
        </g>
    </g>
</svg>
