<?xml version="1.0" standalone="no"?>
<!DOCTYPE svg PUBLIC "-//W3C//DTD SVG 20010904//EN"
 "http://www.w3.org/TR/2001/REC-SVG-20010904/DTD/svg10.dtd">
<svg version="1.0" xmlns="http://www.w3.org/2000/svg"
 width="700.000000pt" height="700.000000pt" viewBox="0 0 700.000000 700.000000"
 preserveAspectRatio="xMidYMid meet">
<metadata>
Created by potrace 1.14, written by Peter Selinger 2001-2017
</metadata>
<g transform="translate(0.000000,700.000000) scale(0.100000,-0.100000)"
fill="#000000" stroke="none">
<path d="M6276 6043 c-2 -2 -17 -5 -106 -18 -71 -11 -77 -13 -199 -46 -64 -18
-133 -40 -153 -51 -21 -10 -38 -15 -38 -11 0 4 -5 2 -12 -5 -7 -7 -20 -12 -30
-12 -10 0 -18 -4 -18 -8 0 -4 -17 -14 -37 -21 -21 -8 -55 -25 -75 -38 -21 -12
-42 -23 -48 -23 -5 0 -10 -3 -10 -8 0 -4 -13 -13 -28 -20 -16 -6 -37 -20 -48
-30 -10 -10 -35 -29 -54 -42 -72 -50 -146 -123 -230 -225 -59 -73 -150 -214
-150 -234 0 -6 -4 -11 -10 -11 -5 0 -10 -9 -10 -19 0 -11 -4 -22 -9 -25 -21
-14 -104 -276 -125 -396 -3 -19 -9 -46 -13 -60 -8 -32 -12 -3761 -4 -3776 4
-8 13 -9 31 -1 14 5 30 11 35 13 6 1 71 26 145 54 74 28 140 53 145 54 6 2 21
8 35 13 14 6 59 23 100 37 133 48 585 218 589 222 2 2 4 466 5 1030 l1 1028
25 7 c14 4 39 12 55 19 17 7 35 14 40 16 6 1 68 23 139 48 72 25 131 46 133
46 2 0 3 198 3 440 0 242 -4 440 -9 440 -8 0 -59 -15 -91 -27 -8 -3 -19 -7
-25 -8 -5 -2 -67 -21 -136 -44 -69 -23 -128 -41 -131 -41 -3 0 -5 127 -4 283
l1 282 28 57 c50 103 129 145 249 135 35 -3 75 -9 91 -12 l27 -7 0 500 0 501
-36 -2 c-20 -1 -37 -3 -38 -4z"/>
<path d="M935 5671 c-131 -37 -221 -127 -263 -261 -28 -88 -24 -253 8 -355 27
-85 76 -193 98 -219 9 -10 15 -20 14 -23 -7 -8 96 -137 155 -196 95 -93 258
-207 298 -207 8 0 16 -4 19 -9 3 -5 16 -11 28 -14 13 -3 50 -13 83 -22 70 -20
190 -22 255 -6 146 38 250 147 286 300 13 55 13 199 -1 261 -18 86 -88 260
-107 268 -5 2 -8 8 -8 14 0 40 -260 328 -296 328 -3 0 -20 11 -38 25 -18 14
-38 25 -44 25 -6 0 -12 4 -14 8 -5 12 -84 47 -163 72 -93 30 -228 35 -310 11z"/>
<path d="M2749 5665 c-182 -55 -365 -181 -480 -332 -24 -32 -46 -60 -49 -63
-13 -13 -59 -90 -82 -140 -50 -104 -65 -150 -72 -210 -1 -9 -5 -20 -8 -25 -3
-6 -6 -47 -7 -91 -5 -231 96 -384 294 -445 40 -12 170 -16 215 -6 57 13 67 16
115 32 233 80 475 312 583 560 45 104 65 189 68 291 6 227 -95 380 -290 438
-71 21 -198 17 -287 -9z"/>
<path d="M3732 5679 c-102 -19 -213 -104 -259 -199 -96 -197 -47 -477 125
-720 124 -175 342 -340 507 -385 17 -4 35 -9 40 -11 82 -23 275 -19 291 7 3 5
9 7 14 4 13 -8 112 58 148 100 66 75 104 184 105 300 0 50 -12 155 -19 167 -3
4 -7 20 -10 34 -9 49 -81 202 -130 275 -55 84 -183 217 -264 277 -87 64 -217
125 -315 148 -45 10 -184 12 -233 3z"/>
<path d="M757 4303 c-4 -3 -7 -664 -7 -1467 l0 -1461 148 -53 c81 -29 156 -57
167 -62 11 -5 54 -21 95 -35 41 -15 102 -37 135 -50 33 -12 69 -26 80 -30 11
-5 25 -9 30 -11 6 -1 42 -14 80 -29 39 -14 89 -33 113 -41 24 -8 63 -24 88
-35 25 -10 54 -19 65 -19 10 0 19 -5 19 -12 0 -6 3 -9 6 -5 4 3 19 0 35 -9 23
-11 29 -12 30 -2 4 62 3 2912 -1 2917 -5 6 -84 36 -190 72 -30 11 -64 23 -75
29 -11 5 -72 28 -135 50 -113 41 -130 47 -180 68 -14 6 -59 22 -100 37 -41 15
-84 30 -95 35 -11 5 -78 30 -150 56 -71 26 -135 51 -141 55 -6 5 -14 6 -17 2z"/>
<path d="M3105 4260 c-92 -35 -467 -175 -710 -265 -55 -20 -134 -50 -176 -66
l-77 -30 1 -1463 1 -1464 21 8 c11 5 54 21 95 35 41 15 84 31 95 36 11 5 47
19 80 30 133 47 166 59 310 114 83 31 157 58 165 60 13 3 82 28 135 50 11 5
22 9 25 9 3 1 19 6 35 13 34 13 57 20 68 22 4 0 20 7 35 15 l27 14 0 1458 c0
1289 -2 1459 -15 1461 -8 0 -60 -16 -115 -37z"/>
<path d="M3515 2838 l0 -1462 120 -44 c66 -24 129 -47 140 -52 11 -4 45 -17
75 -28 30 -11 118 -44 195 -72 77 -29 178 -65 225 -81 47 -17 96 -35 110 -41
14 -6 34 -14 45 -18 11 -4 50 -19 88 -34 37 -14 74 -26 81 -26 12 0 14 214 13
1461 l-2 1461 -120 44 c-66 25 -127 47 -135 51 -8 3 -19 7 -25 9 -5 1 -59 21
-120 44 -60 23 -171 64 -245 92 -74 27 -144 53 -155 58 -52 22 -269 100 -279
100 -8 0 -11 -375 -11 -1462z"/>
</g>
</svg>
